<svg id="Icon_awesome-instagram" data-name="Icon awesome-instagram" xmlns="http://www.w3.org/2000/svg" width="74.532" height="74.515" viewBox="0 0 74.532 74.515">
  <path id="Icon_awesome-instagram-2" data-name="Icon awesome-instagram" d="M37.269,20.39a19.1,19.1,0,1,0,19.1,19.1A19.074,19.074,0,0,0,37.269,20.39Zm0,31.525A12.421,12.421,0,1,1,49.689,39.5,12.443,12.443,0,0,1,37.269,51.916ZM61.611,19.609a4.456,4.456,0,1,1-4.456-4.456A4.446,4.446,0,0,1,61.611,19.609Zm12.653,4.523c-.283-5.969-1.646-11.257-6.019-15.613C63.889,4.162,58.6,2.8,52.632,2.5c-6.152-.349-24.592-.349-30.744,0-5.953.283-11.24,1.646-15.613,6S.556,18.146.257,24.115c-.349,6.152-.349,24.592,0,30.744C.539,60.828,1.9,66.115,6.276,70.472s9.644,5.72,15.613,6.019c6.152.349,24.592.349,30.744,0,5.969-.283,11.257-1.646,15.613-6.019,4.356-4.356,5.72-9.644,6.019-15.613.349-6.152.349-24.575,0-30.727ZM66.317,61.46a12.575,12.575,0,0,1-7.083,7.083c-4.905,1.945-16.544,1.5-21.965,1.5s-17.076.432-21.965-1.5A12.575,12.575,0,0,1,8.221,61.46c-1.945-4.905-1.5-16.544-1.5-21.965s-.432-17.076,1.5-21.965A12.575,12.575,0,0,1,15.3,10.447c4.905-1.945,16.544-1.5,21.965-1.5s17.076-.432,21.965,1.5a12.575,12.575,0,0,1,7.083,7.083c1.945,4.905,1.5,16.544,1.5,21.965S68.262,56.571,66.317,61.46Z" transform="translate(0.005 -2.238)" fill="#302c5f"/>
</svg>
