<svg id="Icon_awesome-store" data-name="Icon awesome-store" xmlns="http://www.w3.org/2000/svg" width="76.663" height="74.515" viewBox="0 0 76.663 74.515">
  <path id="Icon_awesome-store-2" data-name="Icon awesome-store" d="M74.926,17.261,66.848,2.183A3.891,3.891,0,0,0,63.475,0H13.19A3.891,3.891,0,0,0,9.817,2.183L1.739,17.261c-4.17,7.786-.473,18.614,7.319,19.851a11.093,11.093,0,0,0,1.705.131,11.607,11.607,0,0,0,9.186-4.817,11.626,11.626,0,0,0,9.186,4.817,11.607,11.607,0,0,0,9.186-4.817,11.166,11.166,0,0,0,18.371,0,11.644,11.644,0,0,0,9.186,4.817,10.973,10.973,0,0,0,1.705-.131C75.4,35.889,79.108,25.061,74.926,17.261ZM65.9,41.915a13.644,13.644,0,0,1-3.672-.553V55.886h-47.8V41.362a14.245,14.245,0,0,1-3.672.553,14.4,14.4,0,0,1-2.24-.175,13.733,13.733,0,0,1-2.041-.524V69.858c0,2.576,1.78,4.657,3.983,4.657H66.226c2.2,0,3.983-2.081,3.983-4.657V41.216a11.151,11.151,0,0,1-2.041.524A14.845,14.845,0,0,1,65.9,41.915Z" transform="translate(-0.004)" fill="#302c5f"/>
</svg>
