<svg xmlns="http://www.w3.org/2000/svg" width="74.515" height="74.515" viewBox="0 0 74.515 74.515">
  <path id="Icon_awesome-twitter-square" data-name="Icon awesome-twitter-square" d="M66.531,2.25H7.984A7.986,7.986,0,0,0,0,10.234V68.781a7.986,7.986,0,0,0,7.984,7.984H66.531a7.986,7.986,0,0,0,7.984-7.984V10.234A7.986,7.986,0,0,0,66.531,2.25ZM58.4,28.663c.033.466.033.948.033,1.414,0,14.421-10.978,31.037-31.037,31.037a30.894,30.894,0,0,1-16.749-4.89,22.982,22.982,0,0,0,2.628.133A21.871,21.871,0,0,0,26.812,51.7a10.923,10.923,0,0,1-10.2-7.568,11.757,11.757,0,0,0,4.923-.2A10.91,10.91,0,0,1,12.807,33.22v-.133a10.9,10.9,0,0,0,4.923,1.381,10.886,10.886,0,0,1-4.857-9.082,10.772,10.772,0,0,1,1.48-5.505,30.974,30.974,0,0,0,22.488,11.41,10.932,10.932,0,0,1,18.612-9.963A21.376,21.376,0,0,0,62.373,18.7a10.88,10.88,0,0,1-4.79,6,21.709,21.709,0,0,0,6.287-1.7A22.961,22.961,0,0,1,58.4,28.663Z" transform="translate(0 -2.25)" fill="#302c5f"/>
</svg>
